<?xml version="1.0" encoding="utf-8"?><svg xmlns="http://www.w3.org/2000/svg" xmlns:xlink="http://www.w3.org/1999/xlink" width="1920" height="976" preserveAspectRatio="xMidYMid" viewBox="0 0 1920 976" style="z-index:1;margin-right:-2px;display:block;background-repeat-y:initial;background-repeat-x:initial;background-color:rgb(241, 242, 243);animation-play-state:paused" ><g transform="translate(960,488) scale(1,1) translate(-960,-488)" style="transform:matrix(1, 0, 0, 1, 0, 0);animation-play-state:paused" ><linearGradient id="lg-0.8205251216108735" x1="0" x2="1" y1="0" y2="0" style="animation-play-state:paused" ><stop stop-color="#3be8b0" offset="0" style="animation-play-state:paused" ></stop>

  
<stop stop-color="#1aafd0" offset="1" style="animation-play-state:paused" ></stop></linearGradient>
<path d="M 0 0 L 0 628.969 Q 192 806.273 384 783.922 T 768 589.217 T 1152 270.384 T 1536 251.876 T 1920 290.225 L 1920 0 Z" fill="url(#lg-0.8205251216108735)" opacity="0.4" style="opacity:0.4;animation-play-state:paused" ></path>
<path d="M 0 0 L 0 829.779 Q 192 657.32 384 632.965 T 768 332.836 T 1152 344.069 T 1536 196.523 T 1920 63.4647 L 1920 0 Z" fill="url(#lg-0.8205251216108735)" opacity="0.4" style="opacity:0.4;animation-play-state:paused" ></path>
<path d="M 0 0 L 0 528.877 Q 192 694.212 384 658.429 T 768 629.57 T 1152 484.084 T 1536 213.669 T 1920 133.794 L 1920 0 Z" fill="url(#lg-0.8205251216108735)" opacity="0.4" style="opacity:0.4;animation-play-state:paused" ></path>
<path d="M 0 0 L 0 529.586 Q 192 676.626 384 644.419 T 768 682.885 T 1152 517.539 T 1536 154.727 T 1920 304.964 L 1920 0 Z" fill="url(#lg-0.8205251216108735)" opacity="0.4" style="opacity:0.4;animation-play-state:paused" ></path>
<path d="M 0 0 L 0 748.349 Q 192 522.984 384 490.185 T 768 304.12 T 1152 267.669 T 1536 197.956 T 1920 177.021 L 1920 0 Z" fill="url(#lg-0.8205251216108735)" opacity="0.4" style="opacity:0.4;animation-play-state:paused" ></path>
<path d="M 0 0 L 0 681.615 Q 192 610.207 384 581.247 T 768 449.898 T 1152 246.633 T 1536 77.0438 T 1920 166.207 L 1920 0 Z" fill="url(#lg-0.8205251216108735)" opacity="0.4" style="opacity:0.4;animation-play-state:paused" ></path>
<path d="M 0 0 L 0 822.938 Q 192 527.886 384 495.547 T 768 534.202 T 1152 303.79 T 1536 217.284 T 1920 271.481 L 1920 0 Z" fill="url(#lg-0.8205251216108735)" opacity="0.4" style="opacity:0.4;animation-play-state:paused" ></path></g></svg>